<?xml version="1.0" encoding="UTF-8"?> <!-- Generator: Adobe Illustrator 19.2.1, SVG Export Plug-In . SVG Version: 6.00 Build 0) --> <svg xmlns="http://www.w3.org/2000/svg" xmlns:xlink="http://www.w3.org/1999/xlink" version="1.1" id="Слой_1" x="0px" y="0px" viewBox="0 0 400.7 168.5" style="enable-background:new 0 0 400.7 168.5;" xml:space="preserve"> <style type="text/css"> .st0{fill-rule:evenodd;clip-rule:evenodd;fill:url(#SVGID_1_);} .st1{fill-rule:evenodd;clip-rule:evenodd;fill:url(#SVGID_2_);} .st2{fill-rule:evenodd;clip-rule:evenodd;fill:url(#SVGID_3_);} .st3{fill-rule:evenodd;clip-rule:evenodd;fill:url(#SVGID_4_);} .st4{fill-rule:evenodd;clip-rule:evenodd;fill:url(#SVGID_5_);} .st5{fill-rule:evenodd;clip-rule:evenodd;fill:url(#SVGID_6_);} .st6{fill-rule:evenodd;clip-rule:evenodd;fill:url(#SVGID_7_);} .st7{fill-rule:evenodd;clip-rule:evenodd;fill:url(#SVGID_8_);} .st8{fill-rule:evenodd;clip-rule:evenodd;fill:url(#SVGID_9_);} .st9{fill-rule:evenodd;clip-rule:evenodd;fill:url(#SVGID_10_);} .st10{fill-rule:evenodd;clip-rule:evenodd;fill:url(#SVGID_11_);} .st11{fill-rule:evenodd;clip-rule:evenodd;fill:url(#SVGID_12_);} .st12{fill-rule:evenodd;clip-rule:evenodd;fill:url(#SVGID_13_);} .st13{fill-rule:evenodd;clip-rule:evenodd;fill:url(#SVGID_14_);} .st14{fill-rule:evenodd;clip-rule:evenodd;fill:url(#SVGID_15_);} .st15{fill-rule:evenodd;clip-rule:evenodd;fill:url(#SVGID_16_);} .st16{fill-rule:evenodd;clip-rule:evenodd;fill:url(#SVGID_17_);} .st17{fill-rule:evenodd;clip-rule:evenodd;fill:url(#SVGID_18_);} .st18{fill-rule:evenodd;clip-rule:evenodd;fill:#168DFF;} .st19{fill-rule:evenodd;clip-rule:evenodd;fill:#43C8E9;} .st20{fill-rule:evenodd;clip-rule:evenodd;fill:#A437F2;} .st21{fill-rule:evenodd;clip-rule:evenodd;fill:#3FC0EE;} .st22{fill-rule:evenodd;clip-rule:evenodd;fill:#43C6EB;} .st23{fill-rule:evenodd;clip-rule:evenodd;fill:#5F3BF2;} .st24{fill-rule:evenodd;clip-rule:evenodd;fill:#43EBBB;} .st25{fill:none;stroke:#3D3DF4;stroke-width:2.8403;stroke-miterlimit:10;} .st26{fill:#3D3DF4;} .st27{fill-rule:evenodd;clip-rule:evenodd;fill:url(#SVGID_19_);} .st28{fill-rule:evenodd;clip-rule:evenodd;fill:url(#SVGID_20_);} .st29{fill-rule:evenodd;clip-rule:evenodd;fill:url(#SVGID_21_);} .st30{fill-rule:evenodd;clip-rule:evenodd;fill:url(#SVGID_22_);} .st31{fill-rule:evenodd;clip-rule:evenodd;fill:url(#SVGID_23_);} .st32{fill-rule:evenodd;clip-rule:evenodd;fill:url(#SVGID_24_);} .st33{fill-rule:evenodd;clip-rule:evenodd;fill:url(#SVGID_25_);} .st34{fill-rule:evenodd;clip-rule:evenodd;fill:url(#SVGID_26_);} .st35{fill-rule:evenodd;clip-rule:evenodd;fill:url(#SVGID_27_);} .st36{fill-rule:evenodd;clip-rule:evenodd;fill:url(#SVGID_28_);} .st37{fill-rule:evenodd;clip-rule:evenodd;fill:url(#SVGID_29_);} .st38{fill-rule:evenodd;clip-rule:evenodd;fill:url(#SVGID_30_);} .st39{fill-rule:evenodd;clip-rule:evenodd;fill:url(#SVGID_31_);} .st40{fill-rule:evenodd;clip-rule:evenodd;fill:url(#SVGID_32_);} .st41{fill-rule:evenodd;clip-rule:evenodd;fill:url(#SVGID_33_);} .st42{fill-rule:evenodd;clip-rule:evenodd;fill:url(#SVGID_34_);} .st43{fill-rule:evenodd;clip-rule:evenodd;fill:url(#SVGID_35_);} .st44{fill-rule:evenodd;clip-rule:evenodd;fill:url(#SVGID_36_);} </style> <g> <g> <path class="st26" d="M148.1,36.2h4.4v14.4l6.4-14.4h3.6v25.1H158V46.7l-6.5,14.6h-3.4V36.2z"></path> <path class="st26" d="M167.9,59.5c-1.1-1.4-1.7-3.5-1.7-6.2v-9c0-2.8,0.6-4.9,1.7-6.3c1.1-1.4,3.1-2.1,5.8-2.1 c2.6,0,4.5,0.6,5.6,1.9s1.6,3,1.6,5.4v2.2h-5.4v-2.5c0-1-0.1-1.7-0.3-2.2c-0.2-0.5-0.7-0.8-1.5-0.8c-0.8,0-1.3,0.3-1.5,0.8 c-0.2,0.5-0.4,1.3-0.4,2.3v11.8c0,1,0.1,1.8,0.4,2.3c0.3,0.5,0.8,0.8,1.5,0.8s1.3-0.3,1.5-0.8c0.2-0.5,0.3-1.3,0.3-2.3V52h5.4v2.2 c0,2.4-0.5,4.2-1.6,5.5c-1.1,1.3-3,2-5.6,2C171,61.7,169.1,60.9,167.9,59.5z"></path> <path class="st26" d="M184.4,36.2h5.5v9.9h0.6l3.7-9.9h5.5L195.1,48l4.7,13.3h-5.7l-3.7-10.9H190v10.9h-5.5V36.2z"></path> <path class="st26" d="M202.1,62.6c1.6,0,2.8-0.1,3.6-0.5c0.8-0.4,1.2-1.1,1.2-2.1c0-0.3-0.1-0.7-0.2-1.2l-5.6-22.6h5.1l2.2,10.3 l1,6.7l0.7-6.8l1.8-10.3h5.2l-5.2,23.4c-0.4,1.9-1,3.4-1.6,4.3c-0.7,0.9-1.6,1.6-2.9,1.9c-1.3,0.3-3.1,0.5-5.4,0.4V62.6z"></path> <path class="st26" d="M221.2,59.5c-1.1-1.4-1.7-3.5-1.7-6.2v-9c0-2.8,0.6-4.9,1.7-6.3c1.1-1.4,3.1-2.1,5.8-2.1 c2.6,0,4.5,0.6,5.6,1.9s1.6,3,1.6,5.4v2.2h-5.4v-2.5c0-1-0.1-1.7-0.3-2.2c-0.2-0.5-0.7-0.8-1.5-0.8c-0.8,0-1.3,0.3-1.5,0.8 c-0.2,0.5-0.4,1.3-0.4,2.3v11.8c0,1,0.1,1.8,0.4,2.3c0.3,0.5,0.8,0.8,1.5,0.8s1.3-0.3,1.5-0.8c0.2-0.5,0.3-1.3,0.3-2.3V52h5.4v2.2 c0,2.4-0.5,4.2-1.6,5.5c-1.1,1.3-3,2-5.6,2C224.3,61.7,222.3,60.9,221.2,59.5z"></path> <path class="st26" d="M238.9,59.5c-1.1-1.4-1.7-3.5-1.7-6.2v-9c0-2.8,0.6-4.9,1.7-6.3c1.1-1.4,3.1-2.1,5.8-2.1 c2.6,0,4.5,0.6,5.6,1.9s1.6,3,1.6,5.4v2.2h-5.4v-2.5c0-1-0.1-1.7-0.3-2.2c-0.2-0.5-0.7-0.8-1.5-0.8c-0.8,0-1.3,0.3-1.5,0.8 c-0.2,0.5-0.4,1.3-0.4,2.3v11.8c0,1,0.1,1.8,0.4,2.3c0.3,0.5,0.8,0.8,1.5,0.8s1.3-0.3,1.5-0.8c0.2-0.5,0.3-1.3,0.3-2.3V52h5.4v2.2 c0,2.4-0.5,4.2-1.6,5.5c-1.1,1.3-3,2-5.6,2C242,61.7,240.1,60.9,238.9,59.5z"></path> <path class="st26" d="M257.6,40.3h-3.8v-4.1h13.1v4.1h-3.7v21h-5.6V40.3z"></path> <path class="st26" d="M269.4,36.2h6.5c1.6,0,3,0.2,4.2,0.5c1.1,0.3,2.1,1,2.8,2c0.7,1,1.1,2.3,1.1,4.1c0,1.5-0.3,2.6-1,3.5 c-0.6,0.8-1.5,1.4-2.7,1.6c1.4,0.2,2.6,0.8,3.3,1.8c0.8,1,1.1,2.4,1.1,4.2c0,5-2.5,7.4-7.6,7.4h-7.7V36.2z M276,46.2 c1.2,0,2-0.3,2.4-0.8c0.4-0.5,0.6-1.4,0.6-2.5c0-1-0.3-1.7-0.8-2.2c-0.5-0.5-1.3-0.8-2.4-0.8h-1v6.3H276z M276.1,57.4 c1.2,0,2-0.3,2.5-0.9s0.7-1.5,0.7-2.8c0-1.4-0.2-2.4-0.7-3s-1.3-0.9-2.5-0.9H275v7.5H276.1z"></path> <path class="st26" d="M287.9,36.2h11.3V40h-5.7v6.2h4.4V50h-4.4v7.5h5.8v3.7h-11.3V36.2z"></path> <path class="st26" d="M302.2,36.2h5.5v10.2h3.9V36.2h5.6v25.1h-5.6v-11h-3.9v11h-5.5V36.2z"></path> <path class="st26" d="M321.4,36.2h5.5v10.2h3.9V36.2h5.6v25.1h-5.6v-11h-3.9v11h-5.5V36.2z"></path> <path class="st26" d="M340.6,36.2h5.5v10.6h1.2c4.9,0,7.4,2.4,7.4,7.2c0,1.9-0.3,3.4-1,4.5c-0.7,1.1-1.6,1.8-2.7,2.2 c-1.1,0.4-2.5,0.6-4.2,0.6h-6.3V36.2z M346.9,57.7c1,0,1.7-0.3,2.1-0.8s0.7-1.4,0.7-2.6c0-1.1-0.2-2-0.6-2.6 c-0.4-0.6-1.1-0.9-2.2-0.9h-0.7v7H346.9z M356.9,36.2h5.5v25.1h-5.5V36.2z"></path> <path class="st26" d="M366.7,36.2h4.4v14.4l6.4-14.4h3.6v25.1h-4.5V46.7L370,61.3h-3.4V36.2z M370.7,32.9c-0.9-0.8-1.3-2-1.3-3.6 h2.9c0,0.8,0.2,1.4,0.5,1.7c0.3,0.4,0.8,0.5,1.5,0.5c0.7,0,1.2-0.2,1.5-0.6c0.3-0.4,0.5-0.9,0.5-1.7h2.9c0,1.5-0.4,2.7-1.3,3.6 c-0.9,0.8-2.1,1.3-3.5,1.3S371.6,33.8,370.7,32.9z"></path> <path class="st26" d="M148.1,73.4h4.4v14.4l6.4-14.4h3.6v25.1H158V83.8l-6.5,14.6h-3.4V73.4z"></path> <path class="st26" d="M166.7,73.4h5.5v10.2h3.9V73.4h5.6v25.1h-5.6v-11h-3.9v11h-5.5V73.4z"></path> <path class="st26" d="M188,77.5h-3.8v-4.1h13.1v4.1h-3.7v21H188V77.5z"></path> <path class="st26" d="M199.9,73.4h11.3v3.8h-5.7v6.2h4.4v3.8h-4.4v7.5h5.8v3.7h-11.3V73.4z"></path> <path class="st26" d="M212.4,94.6c1.2,0,2-0.1,2.4-0.5c0.4-0.3,0.7-1,0.9-2.1c0.2-1,0.4-3.1,0.6-6.2l0.1-1.3l0.8-11.2h13.3v25.1 H225V77.6h-2.8l-0.5,8c-0.3,3.9-0.6,6.6-0.9,8.2c-0.3,1.6-1,2.8-2,3.5c-1,0.8-2.6,1.2-4.9,1.2c-0.7,0-1.2,0-1.6,0V94.6z"></path> <path class="st26" d="M233,94.6c1.2,0,2-0.1,2.4-0.5c0.4-0.3,0.7-1,0.9-2.1c0.2-1,0.4-3.1,0.6-6.2l0.1-1.3l0.8-11.2h13.3v25.1 h-5.5V77.6h-2.8l-0.5,8c-0.3,3.9-0.6,6.6-0.9,8.2c-0.3,1.6-1,2.8-2,3.5c-1,0.8-2.6,1.2-4.9,1.2c-0.7,0-1.2,0-1.6,0V94.6z"></path> <path class="st26" d="M255.3,73.4h11.3v3.8h-5.7v6.2h4.4v3.8h-4.4v7.5h5.8v3.7h-11.3V73.4z"></path> <path class="st26" d="M269.5,73.4h5.5v9.9h0.6l3.7-9.9h5.5l-4.6,11.8l4.7,13.3h-5.7l-3.7-10.9h-0.6v10.9h-5.5V73.4z"></path> <path class="st26" d="M289.7,77.5H286v-4.1h13.1v4.1h-3.7v21h-5.6V77.5z"></path> </g> <g> <linearGradient id="SVGID_1_" gradientUnits="userSpaceOnUse" x1="513.0298" y1="115.291" x2="517.3887" y2="115.291" gradientTransform="matrix(-1 0 0 1 626.4212 0)"> <stop offset="0" style="stop-color:#0040F2"></stop> <stop offset="0.181" style="stop-color:#323DF2"></stop> <stop offset="0.3666" style="stop-color:#5D3BF2"></stop> <stop offset="0.5464" style="stop-color:#8039F2"></stop> <stop offset="0.7161" style="stop-color:#9838F2"></stop> <stop offset="0.8717" style="stop-color:#A737F2"></stop> <stop offset="1" style="stop-color:#AC37F2"></stop> </linearGradient> <rect x="109" y="113.1" class="st0" width="4.4" height="4.4"></rect> <linearGradient id="SVGID_2_" gradientUnits="userSpaceOnUse" x1="491.9359" y1="124.0258" x2="521.7476" y2="124.0258" gradientTransform="matrix(-1 0 0 1 626.4212 0)"> <stop offset="0" style="stop-color:#0040F2"></stop> <stop offset="0.181" style="stop-color:#323DF2"></stop> <stop offset="0.3666" style="stop-color:#5D3BF2"></stop> <stop offset="0.5464" style="stop-color:#8039F2"></stop> <stop offset="0.7161" style="stop-color:#9838F2"></stop> <stop offset="0.8717" style="stop-color:#A737F2"></stop> <stop offset="1" style="stop-color:#AC37F2"></stop> </linearGradient> <path class="st1" d="M104.7,132.2h12.1c11.7,0,13.1,9.1,17.7,9.1l0,0v-16.9c0-9.7-8-17.7-17.7-17.7h-12.1V132.2z"></path> <linearGradient id="SVGID_3_" gradientUnits="userSpaceOnUse" x1="530.3181" y1="98.1794" x2="534.6769" y2="98.1794" gradientTransform="matrix(-1 0 0 1 626.4212 0)"> <stop offset="0" style="stop-color:#0040F2"></stop> <stop offset="0.2627" style="stop-color:#0657F6"></stop> <stop offset="0.7459" style="stop-color:#117DFD"></stop> <stop offset="1" style="stop-color:#158CFF"></stop> </linearGradient> <rect x="91.7" y="96" class="st2" width="4.4" height="4.4"></rect> <linearGradient id="SVGID_4_" gradientUnits="userSpaceOnUse" x1="538.5363" y1="98.1794" x2="542.8951" y2="98.1794" gradientTransform="matrix(-1 0 0 1 626.4212 0)"> <stop offset="0" style="stop-color:#0040F2"></stop> <stop offset="0.2627" style="stop-color:#0657F6"></stop> <stop offset="0.7459" style="stop-color:#117DFD"></stop> <stop offset="1" style="stop-color:#158CFF"></stop> </linearGradient> <rect x="83.5" y="96" class="st3" width="4.4" height="4.4"></rect> <linearGradient id="SVGID_5_" gradientUnits="userSpaceOnUse" x1="516.8239" y1="98.1794" x2="521.1827" y2="98.1794" gradientTransform="matrix(-1 0 0 1 626.4212 0)"> <stop offset="0" style="stop-color:#0040F2"></stop> <stop offset="0.2627" style="stop-color:#0657F6"></stop> <stop offset="0.7459" style="stop-color:#117DFD"></stop> <stop offset="1" style="stop-color:#158CFF"></stop> </linearGradient> <rect x="105.2" y="96" class="st4" width="4.4" height="4.4"></rect> <linearGradient id="SVGID_6_" gradientUnits="userSpaceOnUse" x1="512.6676" y1="89.7846" x2="517.0264" y2="89.7846" gradientTransform="matrix(-1 0 0 1 626.4212 0)"> <stop offset="0" style="stop-color:#0040F2"></stop> <stop offset="0.2627" style="stop-color:#0657F6"></stop> <stop offset="0.7459" style="stop-color:#117DFD"></stop> <stop offset="1" style="stop-color:#158CFF"></stop> </linearGradient> <rect x="109.4" y="87.6" class="st5" width="4.4" height="4.4"></rect> <linearGradient id="SVGID_7_" gradientUnits="userSpaceOnUse" x1="491.9359" y1="102.836" x2="547.2539" y2="102.836" gradientTransform="matrix(-1 0 0 1 626.4212 0)"> <stop offset="0" style="stop-color:#0040F2"></stop> <stop offset="0.2627" style="stop-color:#0657F6"></stop> <stop offset="0.7459" style="stop-color:#117DFD"></stop> <stop offset="1" style="stop-color:#158CFF"></stop> </linearGradient> <path class="st6" d="M134.5,124.4V98.9c0-9.7-8-17.7-17.7-17.7H79.2v25.5h37.6C126.5,106.7,134.5,114.7,134.5,124.4z"></path> <linearGradient id="SVGID_8_" gradientUnits="userSpaceOnUse" x1="564.0421" y1="72.673" x2="568.4017" y2="72.673" gradientTransform="matrix(-1 0 0 1 626.4212 0)"> <stop offset="0" style="stop-color:#158CFF"></stop> <stop offset="0.3225" style="stop-color:#219BFA"></stop> <stop offset="0.9361" style="stop-color:#3FC1EE"></stop> <stop offset="1" style="stop-color:#43C5ED"></stop> </linearGradient> <rect x="58" y="70.5" class="st7" width="4.4" height="4.4"></rect> <linearGradient id="SVGID_9_" gradientUnits="userSpaceOnUse" x1="533.2998" y1="72.673" x2="537.6587" y2="72.673" gradientTransform="matrix(-1 0 0 1 626.4212 0)"> <stop offset="0" style="stop-color:#158CFF"></stop> <stop offset="0.3225" style="stop-color:#219BFA"></stop> <stop offset="0.9361" style="stop-color:#3FC1EE"></stop> <stop offset="1" style="stop-color:#43C5ED"></stop> </linearGradient> <rect x="88.8" y="70.5" class="st8" width="4.4" height="4.4"></rect> <linearGradient id="SVGID_10_" gradientUnits="userSpaceOnUse" x1="528.9945" y1="64.2789" x2="533.3531" y2="64.2789" gradientTransform="matrix(-1 0 0 1 626.4212 0)"> <stop offset="0" style="stop-color:#158CFF"></stop> <stop offset="0.3225" style="stop-color:#219BFA"></stop> <stop offset="0.9361" style="stop-color:#3FC1EE"></stop> <stop offset="1" style="stop-color:#43C5ED"></stop> </linearGradient> <rect x="93.1" y="62.1" class="st9" width="4.4" height="4.4"></rect> <linearGradient id="SVGID_11_" gradientUnits="userSpaceOnUse" x1="491.9359" y1="77.3295" x2="572.7603" y2="77.3295" gradientTransform="matrix(-1 0 0 1 626.4212 0)"> <stop offset="0" style="stop-color:#158CFF"></stop> <stop offset="0.3225" style="stop-color:#219BFA"></stop> <stop offset="0.9361" style="stop-color:#3FC1EE"></stop> <stop offset="1" style="stop-color:#43C5ED"></stop> </linearGradient> <path class="st10" d="M134.5,98.9V73.4c0-9.7-8-17.7-17.7-17.7H53.7v25.5h63.1C126.5,81.2,134.5,89.2,134.5,98.9z"></path> <linearGradient id="SVGID_12_" gradientUnits="userSpaceOnUse" x1="576.9722" y1="47.1664" x2="581.3311" y2="47.1664" gradientTransform="matrix(-1 0 0 1 626.4212 0)"> <stop offset="0" style="stop-color:#43C5ED"></stop> <stop offset="0.4183" style="stop-color:#43D4DA"></stop> <stop offset="1" style="stop-color:#43EDB8"></stop> </linearGradient> <rect x="45.1" y="45" class="st11" width="4.4" height="4.4"></rect> <linearGradient id="SVGID_13_" gradientUnits="userSpaceOnUse" x1="585.1897" y1="47.1664" x2="589.5485" y2="47.1664" gradientTransform="matrix(-1 0 0 1 626.4212 0)"> <stop offset="0" style="stop-color:#43C5ED"></stop> <stop offset="0.4183" style="stop-color:#43D4DA"></stop> <stop offset="1" style="stop-color:#43EDB8"></stop> </linearGradient> <rect x="36.9" y="45" class="st12" width="4.4" height="4.4"></rect> <linearGradient id="SVGID_14_" gradientUnits="userSpaceOnUse" x1="581.0334" y1="38.7724" x2="585.3923" y2="38.7724" gradientTransform="matrix(-1 0 0 1 626.4212 0)"> <stop offset="0" style="stop-color:#43C5ED"></stop> <stop offset="0.4183" style="stop-color:#43D4DA"></stop> <stop offset="1" style="stop-color:#43EDB8"></stop> </linearGradient> <rect x="41" y="36.6" class="st13" width="4.4" height="4.4"></rect> <linearGradient id="SVGID_15_" gradientUnits="userSpaceOnUse" x1="562.0693" y1="38.7724" x2="566.4282" y2="38.7724" gradientTransform="matrix(-1 0 0 1 626.4212 0)"> <stop offset="0" style="stop-color:#43C5ED"></stop> <stop offset="0.4183" style="stop-color:#43D4DA"></stop> <stop offset="1" style="stop-color:#43EDB8"></stop> </linearGradient> <rect x="60" y="36.6" class="st14" width="4.4" height="4.4"></rect> <linearGradient id="SVGID_16_" gradientUnits="userSpaceOnUse" x1="545.4844" y1="47.1664" x2="549.8433" y2="47.1664" gradientTransform="matrix(-1 0 0 1 626.4212 0)"> <stop offset="0" style="stop-color:#43C5ED"></stop> <stop offset="0.4183" style="stop-color:#43D4DA"></stop> <stop offset="1" style="stop-color:#43EDB8"></stop> </linearGradient> <rect x="76.6" y="45" class="st15" width="4.4" height="4.4"></rect> <linearGradient id="SVGID_17_" gradientUnits="userSpaceOnUse" x1="541.1791" y1="38.7724" x2="545.5384" y2="38.7724" gradientTransform="matrix(-1 0 0 1 626.4212 0)"> <stop offset="0" style="stop-color:#43C5ED"></stop> <stop offset="0.4183" style="stop-color:#43D4DA"></stop> <stop offset="1" style="stop-color:#43EDB8"></stop> </linearGradient> <rect x="80.9" y="36.6" class="st16" width="4.4" height="4.4"></rect> <linearGradient id="SVGID_18_" gradientUnits="userSpaceOnUse" x1="491.9359" y1="51.8231" x2="598.2662" y2="51.8231" gradientTransform="matrix(-1 0 0 1 626.4212 0)"> <stop offset="0" style="stop-color:#43C5ED"></stop> <stop offset="0.4183" style="stop-color:#43D4DA"></stop> <stop offset="1" style="stop-color:#43EDB8"></stop> </linearGradient> <path class="st17" d="M134.5,73.4V47.9c0-9.7-8-17.7-17.7-17.7H28.2v25.5h88.6C126.5,55.7,134.5,63.7,134.5,73.4z"></path> <polygon class="st18" points="47.3,74.9 34.5,74.9 30.2,74.9 30.2,70.5 34.5,70.5 34.5,62.1 47.3,62.1 "></polygon> <rect x="60" y="87.6" class="st19" width="12.8" height="12.8"></rect> <rect x="85.5" y="113.1" class="st20" width="12.8" height="12.8"></rect> <rect x="26" y="62.1" class="st21" width="4.4" height="4.4"></rect> <rect x="21.7" y="70.5" class="st18" width="4.4" height="4.4"></rect> <rect x="51.6" y="96" class="st22" width="4.4" height="4.4"></rect> <rect x="47.3" y="87.6" class="st22" width="4.4" height="4.4"></rect> <rect x="77.4" y="113.1" class="st23" width="4.4" height="4.4"></rect> <rect x="73.1" y="121.5" class="st20" width="4.4" height="4.4"></rect> <rect x="63.2" y="113.1" class="st23" width="4.4" height="4.4"></rect> <rect x="55.7" y="113.1" class="st20" width="4.4" height="4.4"></rect> <rect x="34.9" y="87.6" class="st24" width="4.4" height="4.4"></rect> <rect x="30.7" y="96" class="st22" width="4.4" height="4.4"></rect> <rect x="39" y="96" class="st24" width="4.4" height="4.4"></rect> <rect x="14.2" y="62.1" class="st21" width="4.4" height="4.4"></rect> </g> <g> <path class="st26" d="M161,121h2.6c0.9,0,1.5,0.2,1.9,0.7c0.4,0.4,0.6,1,0.6,1.7c0,0.5-0.1,0.9-0.3,1.2c-0.2,0.3-0.5,0.6-1,0.7 c0.5,0.1,0.9,0.4,1.1,0.8c0.2,0.4,0.3,1,0.3,1.6c0,0.9-0.2,1.6-0.6,2c-0.4,0.5-1.1,0.7-2.1,0.7H161V121z M163.6,124.8 c0.4,0,0.6-0.1,0.8-0.3c0.2-0.2,0.3-0.5,0.3-1c0-0.4-0.1-0.7-0.3-0.9s-0.5-0.3-0.9-0.3h-0.7v2.5H163.6z M163.4,129.1 c0.4,0,0.8-0.1,1-0.3c0.2-0.2,0.4-0.6,0.4-1.2c0-0.5-0.1-0.8-0.2-1c-0.1-0.2-0.2-0.4-0.4-0.4c-0.2-0.1-0.4-0.1-0.7-0.1h-0.7v3 H163.4z"></path> <path class="st26" d="M178.5,129.7c-0.4-0.6-0.6-1.4-0.6-2.6v-2.7c0-1.1,0.2-2,0.6-2.6s1.1-0.9,2.1-0.9c1,0,1.7,0.3,2.1,0.9 s0.6,1.4,0.6,2.6v2.7c0,1.1-0.2,2-0.6,2.6s-1.1,0.9-2.1,0.9C179.6,130.6,178.9,130.3,178.5,129.7z M181.3,129 c0.1-0.2,0.2-0.4,0.3-0.7c0-0.3,0-0.6,0-1.1v-2.9c0-0.5,0-0.8,0-1.1s-0.1-0.5-0.3-0.7c-0.1-0.2-0.4-0.3-0.7-0.3 c-0.3,0-0.5,0.1-0.7,0.3c-0.1,0.2-0.2,0.4-0.3,0.7c0,0.3,0,0.6,0,1.1v2.9c0,0.5,0,0.8,0,1.1c0,0.3,0.1,0.5,0.3,0.7 c0.1,0.2,0.4,0.3,0.7,0.3C180.9,129.3,181.1,129.2,181.3,129z"></path> <path class="st26" d="M188.8,129.7c-0.5-0.6-0.7-1.4-0.7-2.4v-5.5c0-0.8,0.1-1.5,0.2-2c0.1-0.5,0.3-0.9,0.6-1.2 c0.3-0.3,0.6-0.5,1.1-0.7c0.3-0.1,0.8-0.3,1.5-0.5c0.4-0.1,0.7-0.2,1-0.3s0.5-0.2,0.8-0.4l0.4,1.4c-0.2,0.1-0.5,0.3-0.8,0.3 c-0.3,0.1-0.6,0.2-1,0.3c-0.1,0-0.2,0.1-0.5,0.1s-0.6,0.2-0.8,0.3c-0.3,0.2-0.6,0.4-0.7,0.7c-0.2,0.3-0.3,0.7-0.3,1.3v1.5 c0.2-0.2,0.5-0.4,0.9-0.6c0.4-0.2,0.8-0.3,1.1-0.3c0.6,0,1.2,0.3,1.6,0.8c0.4,0.5,0.6,1.4,0.6,2.6v1.8c0,0.9-0.1,1.7-0.4,2.2 c-0.2,0.5-0.6,0.9-1,1.1c-0.4,0.2-1,0.3-1.6,0.3C189.9,130.6,189.3,130.3,188.8,129.7z M191.7,128.9c0.2-0.3,0.2-0.7,0.2-1.4v-2.8 c0-0.6-0.1-1-0.2-1.3c-0.1-0.3-0.3-0.4-0.6-0.4c-0.4,0-0.8,0.2-1.3,0.5v3.9c0,0.7,0.1,1.2,0.2,1.5c0.2,0.3,0.4,0.4,0.8,0.4 C191.3,129.3,191.6,129.1,191.7,128.9z"></path> <path class="st26" d="M198.5,121h1.7v0.7c0.5-0.6,1.1-0.9,1.8-0.9c0.9,0,1.4,0.4,1.7,1.1s0.4,1.5,0.4,2.4v2.3 c0,1.1-0.2,2.1-0.5,2.8c-0.4,0.7-1,1.1-1.8,1.1c-0.6,0-1.1-0.3-1.6-0.8v3.8h-1.7V121z M202.3,128.6c0.1-0.4,0.2-1,0.2-1.9v-2.3 c0-0.7-0.1-1.2-0.2-1.6c-0.1-0.4-0.4-0.6-0.8-0.6c-0.4,0-0.8,0.2-1.2,0.5v6c0.4,0.3,0.8,0.4,1.3,0.4 C201.9,129.2,202.2,129,202.3,128.6z"></path> <path class="st26" d="M209.8,130.3c-0.3-0.2-0.5-0.5-0.7-0.8c-0.2-0.3-0.2-0.7-0.2-1.1c0-0.7,0.2-1.3,0.5-1.8 c0.3-0.5,0.7-0.8,1.2-1.1c0.5-0.3,1.2-0.6,2-0.9v-0.7c0-0.6-0.1-1.1-0.2-1.3c-0.1-0.3-0.4-0.4-0.8-0.4c-0.7,0-1,0.4-1,1.3v0.5 l-1.7-0.1c0-1,0.3-1.8,0.7-2.3c0.5-0.5,1.2-0.7,2.1-0.7c0.9,0,1.6,0.2,2,0.7c0.4,0.5,0.6,1.2,0.6,2.2v4.3c0,0.7,0.1,1.5,0.2,2.3 h-1.6c-0.1-0.6-0.2-1.1-0.2-1.4c-0.1,0.4-0.4,0.8-0.7,1.1c-0.3,0.3-0.7,0.4-1.2,0.4C210.4,130.6,210.1,130.5,209.8,130.3z M212.1,128.8c0.2-0.2,0.4-0.3,0.5-0.5v-2.7c-0.5,0.3-0.8,0.5-1.1,0.7c-0.3,0.2-0.5,0.4-0.6,0.7s-0.3,0.5-0.3,0.9 c0,0.4,0.1,0.7,0.2,0.9c0.1,0.2,0.3,0.3,0.6,0.3C211.7,129.1,211.9,129,212.1,128.8z"></path> <path class="st26" d="M219.5,129.9c-0.4-0.5-0.6-1.3-0.6-2.3h1.5c0,0.6,0.1,1.1,0.3,1.4s0.4,0.4,0.8,0.4c0.4,0,0.6-0.1,0.8-0.4 c0.1-0.3,0.2-0.7,0.2-1.3c0-0.4-0.1-0.7-0.2-0.9c-0.1-0.2-0.3-0.3-0.6-0.4c-0.3-0.1-0.7-0.1-1.2-0.1V125c0.7,0,1.2-0.1,1.5-0.3 s0.4-0.6,0.4-1.1c0-0.4-0.1-0.8-0.3-1c-0.2-0.2-0.4-0.3-0.7-0.3c-0.4,0-0.6,0.1-0.8,0.3c-0.2,0.2-0.3,0.6-0.3,1.2h-1.5 c0-1,0.2-1.7,0.7-2.2c0.4-0.4,1.1-0.7,1.9-0.7c0.8,0,1.4,0.2,1.8,0.7c0.4,0.5,0.6,1.1,0.6,1.8c0,0.7-0.2,1.3-0.5,1.6 s-0.7,0.5-1.1,0.6c0.3,0.1,0.6,0.2,0.8,0.3c0.2,0.1,0.4,0.3,0.6,0.7c0.2,0.3,0.2,0.8,0.2,1.4c0,0.9-0.2,1.6-0.6,2s-1,0.7-1.9,0.7 C220.6,130.6,220,130.4,219.5,129.9z"></path> <path class="st26" d="M229,129.7c-0.4-0.6-0.6-1.4-0.6-2.6v-2.7c0-1.1,0.2-2,0.6-2.6s1.1-0.9,2.1-0.9c1,0,1.7,0.3,2.1,0.9 s0.6,1.4,0.6,2.6v2.7c0,1.1-0.2,2-0.6,2.6s-1.1,0.9-2.1,0.9C230.2,130.6,229.5,130.3,229,129.7z M231.8,129 c0.1-0.2,0.2-0.4,0.3-0.7c0-0.3,0-0.6,0-1.1v-2.9c0-0.5,0-0.8,0-1.1s-0.1-0.5-0.3-0.7c-0.1-0.2-0.4-0.3-0.7-0.3 c-0.3,0-0.5,0.1-0.7,0.3c-0.1,0.2-0.2,0.4-0.3,0.7c0,0.3,0,0.6,0,1.1v2.9c0,0.5,0,0.8,0,1.1c0,0.3,0.1,0.5,0.3,0.7 c0.1,0.2,0.4,0.3,0.7,0.3C231.5,129.3,231.7,129.2,231.8,129z"></path> <path class="st26" d="M238.7,121h2.6c0.9,0,1.5,0.2,1.9,0.7c0.4,0.4,0.6,1,0.6,1.7c0,0.5-0.1,0.9-0.3,1.2c-0.2,0.3-0.5,0.6-1,0.7 c0.5,0.1,0.9,0.4,1.1,0.8c0.2,0.4,0.3,1,0.3,1.6c0,0.9-0.2,1.6-0.6,2c-0.4,0.5-1.1,0.7-2.1,0.7h-2.7V121z M241.3,124.8 c0.4,0,0.6-0.1,0.8-0.3c0.2-0.2,0.3-0.5,0.3-1c0-0.4-0.1-0.7-0.3-0.9s-0.5-0.3-0.9-0.3h-0.7v2.5H241.3z M241.1,129.1 c0.4,0,0.8-0.1,1-0.3c0.2-0.2,0.4-0.6,0.4-1.2c0-0.5-0.1-0.8-0.2-1c-0.1-0.2-0.2-0.4-0.4-0.4c-0.2-0.1-0.4-0.1-0.7-0.1h-0.7v3 H241.1z"></path> <path class="st26" d="M249.5,130.3c-0.3-0.2-0.5-0.5-0.7-0.8c-0.2-0.3-0.2-0.7-0.2-1.1c0-0.7,0.2-1.3,0.5-1.8 c0.3-0.5,0.7-0.8,1.2-1.1c0.5-0.3,1.2-0.6,2-0.9v-0.7c0-0.6-0.1-1.1-0.2-1.3c-0.1-0.3-0.4-0.4-0.8-0.4c-0.7,0-1,0.4-1,1.3v0.5 l-1.7-0.1c0-1,0.3-1.8,0.7-2.3c0.5-0.5,1.2-0.7,2.1-0.7c0.9,0,1.6,0.2,2,0.7c0.4,0.5,0.6,1.2,0.6,2.2v4.3c0,0.7,0.1,1.5,0.2,2.3 h-1.6c-0.1-0.6-0.2-1.1-0.2-1.4c-0.1,0.4-0.4,0.8-0.7,1.1c-0.3,0.3-0.7,0.4-1.2,0.4C250.1,130.6,249.7,130.5,249.5,130.3z M251.8,128.8c0.2-0.2,0.4-0.3,0.5-0.5v-2.7c-0.5,0.3-0.8,0.5-1.1,0.7c-0.3,0.2-0.5,0.4-0.6,0.7s-0.3,0.5-0.3,0.9 c0,0.4,0.1,0.7,0.2,0.9c0.1,0.2,0.3,0.3,0.6,0.3C251.3,129.1,251.6,129,251.8,128.8z"></path> <path class="st26" d="M258.9,121h1.7v4h2.2v-4h1.7v9.4h-1.7v-4.2h-2.2v4.2h-1.7V121z"></path> <path class="st26" d="M269.6,121h1.5v6.3l2.8-6.3h1.4v9.4h-1.4v-6.4l-2.8,6.4h-1.4V121z"></path> <path class="st26" d="M280.3,121h1.5v6.3l2.8-6.3h1.4v9.4h-1.4v-6.4l-2.8,6.4h-1.4V121z"></path> </g> <g> <path class="st26" d="M301.4,141.3H146.6v-32.1h154.8V141.3z M149.5,138.4h149.1v-26.4H149.5V138.4z"></path> </g> </g> </svg> 